<svg width="40" height="40" viewBox="0 0 40 40" fill="none" xmlns="http://www.w3.org/2000/svg">
<path d="M20.4167 3.33325C13.9667 3.33325 8.75 8.54992 8.75 14.9999C8.75 21.9499 16.1167 31.5333 19.15 35.1833C19.8167 35.9833 21.0333 35.9833 21.7 35.1833C24.7167 31.5333 32.0833 21.9499 32.0833 14.9999C32.0833 8.54992 26.8667 3.33325 20.4167 3.33325ZM20.4167 19.1666C19.3116 19.1666 18.2518 18.7276 17.4704 17.9462C16.689 17.1648 16.25 16.105 16.25 14.9999C16.25 13.8949 16.689 12.835 17.4704 12.0536C18.2518 11.2722 19.3116 10.8333 20.4167 10.8333C21.5217 10.8333 22.5815 11.2722 23.3629 12.0536C24.1443 12.835 24.5833 13.8949 24.5833 14.9999C24.5833 16.105 24.1443 17.1648 23.3629 17.9462C22.5815 18.7276 21.5217 19.1666 20.4167 19.1666Z" fill="#ED1F33"/>
<circle cx="20" cy="15.625" r="7.5" fill="white"/>
</svg>
