<svg width="21" height="21" viewBox="0 0 21 21" fill="none" xmlns="http://www.w3.org/2000/svg">
<path fill-rule="evenodd" clip-rule="evenodd" d="M10.5 19.6875C12.9367 19.6875 15.2736 18.7195 16.9965 16.9965C18.7195 15.2736 19.6875 12.9367 19.6875 10.5C19.6875 8.06332 18.7195 5.72645 16.9965 4.00346C15.2736 2.28047 12.9367 1.3125 10.5 1.3125C8.06332 1.3125 5.72645 2.28047 4.00346 4.00346C2.28047 5.72645 1.3125 8.06332 1.3125 10.5C1.3125 12.9367 2.28047 15.2736 4.00346 16.9965C5.72645 18.7195 8.06332 19.6875 10.5 19.6875ZM10.5 21C13.2848 21 15.9555 19.8938 17.9246 17.9246C19.8938 15.9555 21 13.2848 21 10.5C21 7.71523 19.8938 5.04451 17.9246 3.07538C15.9555 1.10625 13.2848 0 10.5 0C7.71523 0 5.04451 1.10625 3.07538 3.07538C1.10625 5.04451 0 7.71523 0 10.5C0 13.2848 1.10625 15.9555 3.07538 17.9246C5.04451 19.8938 7.71523 21 10.5 21Z" fill="white"/>
<path fill-rule="evenodd" clip-rule="evenodd" d="M10.0356 14.9021C9.97446 14.8412 9.92597 14.7688 9.89289 14.689C9.8598 14.6093 9.84277 14.5238 9.84277 14.4375C9.84277 14.3512 9.8598 14.2657 9.89289 14.186C9.92597 14.1063 9.97446 14.0338 10.0356 13.9729L13.5098 10.5L10.0356 7.02713C9.97456 6.96612 9.92616 6.89368 9.89313 6.81396C9.86011 6.73424 9.84312 6.64879 9.84312 6.56251C9.84312 6.47622 9.86011 6.39077 9.89313 6.31105C9.92616 6.23133 9.97456 6.1589 10.0356 6.09788C10.0966 6.03686 10.169 5.98846 10.2487 5.95544C10.3285 5.92242 10.4139 5.90543 10.5002 5.90543C10.5865 5.90543 10.6719 5.92242 10.7517 5.95544C10.8314 5.98846 10.9038 6.03686 10.9648 6.09788L14.9023 10.0354C14.9634 10.0963 15.0119 10.1688 15.045 10.2485C15.0781 10.3282 15.0951 10.4137 15.0951 10.5C15.0951 10.5863 15.0781 10.6718 15.045 10.7515C15.0119 10.8313 14.9634 10.9037 14.9023 10.9646L10.9648 14.9021C10.9039 14.9632 10.8314 15.0117 10.7517 15.0448C10.672 15.0779 10.5865 15.0949 10.5002 15.0949C10.4139 15.0949 10.3284 15.0779 10.2487 15.0448C10.1689 15.0117 10.0965 14.9632 10.0356 14.9021Z" fill="white"/>
<path fill-rule="evenodd" clip-rule="evenodd" d="M5.90625 10.5C5.90625 10.326 5.97539 10.159 6.09846 10.036C6.22153 9.91289 6.38845 9.84375 6.5625 9.84375H13.125C13.299 9.84375 13.466 9.91289 13.589 10.036C13.7121 10.159 13.7812 10.326 13.7812 10.5C13.7812 10.674 13.7121 10.841 13.589 10.964C13.466 11.0871 13.299 11.1563 13.125 11.1563H6.5625C6.38845 11.1563 6.22153 11.0871 6.09846 10.964C5.97539 10.841 5.90625 10.674 5.90625 10.5Z" fill="white"/>
</svg>
