<svg width="18" height="19" viewBox="0 0 18 19" fill="none" xmlns="http://www.w3.org/2000/svg">
<path d="M8.52632 0L3.31579 8.55H13.7368L8.52632 0ZM8.52632 3.648L10.3547 6.65H6.68842L8.52632 3.648ZM13.7368 10.45C11.3779 10.45 9.47368 12.3595 9.47368 14.725C9.47368 17.0905 11.3779 19 13.7368 19C16.0958 19 18 17.0905 18 14.725C18 12.3595 16.0958 10.45 13.7368 10.45ZM13.7368 17.1C13.1087 17.1 12.5063 16.8498 12.0621 16.4044C11.618 15.959 11.3684 15.3549 11.3684 14.725C11.3684 14.0951 11.618 13.491 12.0621 13.0456C12.5063 12.6002 13.1087 12.35 13.7368 12.35C14.365 12.35 14.9674 12.6002 15.4116 13.0456C15.8557 13.491 16.1053 14.0951 16.1053 14.725C16.1053 15.3549 15.8557 15.959 15.4116 16.4044C14.9674 16.8498 14.365 17.1 13.7368 17.1ZM0 18.525H7.57895V10.925H0V18.525ZM1.89474 12.825H5.68421V16.625H1.89474V12.825Z" fill="white"/>
</svg>
