<svg width="42" height="42" viewBox="0 0 42 42" fill="none" xmlns="http://www.w3.org/2000/svg">
<circle cx="21" cy="21" r="20" fill="white" stroke="#E0E0E0" stroke-width="2"/>
<path d="M10.7342 28.0554C10.737 28.4704 10.6152 28.8766 10.3846 29.2216C9.83467 30.0047 9.00185 30.0629 8.15235 30.0629H7.16936V31.987H5.69507V26.1065H8.61029C9.16073 26.0591 9.70859 26.2228 10.1428 26.5644C10.2453 26.6482 10.3351 26.7464 10.4094 26.8559C10.6279 27.2174 10.7405 27.633 10.7342 28.0554ZM9.27661 28.0473C9.28599 27.8567 9.23014 27.6686 9.11828 27.5141C8.88505 27.1892 8.46011 27.1892 8.11045 27.1892H7.16936V28.9717H8.05928C8.2263 28.9795 8.3937 28.9712 8.55912 28.9468C8.66693 28.939 8.77196 28.9089 8.86758 28.8584C8.9632 28.808 9.04736 28.7384 9.11475 28.6538C9.18214 28.5693 9.23131 28.4717 9.25917 28.3673C9.28702 28.2628 9.29296 28.1538 9.27661 28.0469V28.0473ZM15.2487 31.987H13.9909V31.5943C13.8994 31.6611 13.8159 31.7193 13.7243 31.7775C13.4102 31.9916 13.0384 32.1049 12.6583 32.1023C12.3977 32.1226 12.1369 32.0654 11.9088 31.9379C11.6806 31.8105 11.4951 31.6184 11.3757 31.3859C11.2829 31.1966 11.2344 30.9887 11.2341 30.7778C11.2496 30.5079 11.3415 30.248 11.4991 30.0283C11.6566 29.8085 11.8733 29.6381 12.124 29.5368C12.6904 29.3473 13.2732 29.2107 13.8649 29.1289V28.8875C13.8748 28.8192 13.8692 28.7495 13.8485 28.6837C13.8278 28.6178 13.7925 28.5574 13.7453 28.507C13.6982 28.4567 13.6403 28.4175 13.5759 28.3926C13.5115 28.3676 13.4424 28.3574 13.3736 28.3628C13.2511 28.3488 13.1271 28.3714 13.0174 28.4278C12.9078 28.4841 12.8172 28.5717 12.7573 28.6795C12.7295 28.7405 12.7099 28.805 12.6991 28.8712H11.4172C11.4181 28.5457 11.5432 28.2329 11.7669 27.9965C12.0412 27.7515 12.3845 27.5973 12.7499 27.5548C12.9349 27.5311 13.1214 27.5199 13.3079 27.5215C13.916 27.5215 14.7407 27.6631 15.0321 28.2879C15.0997 28.4393 15.131 28.6043 15.1237 28.77V31.3103C15.0889 31.5434 15.1328 31.7814 15.2487 31.9866V31.987ZM13.866 29.9046L13.0413 30.1794C12.9906 30.1952 12.941 30.2146 12.893 30.2376C12.5764 30.3707 12.4933 30.5542 12.4933 30.7196C12.4963 30.7889 12.5133 30.8569 12.5433 30.9195C12.5882 30.9959 12.653 31.0588 12.7308 31.1013C12.8085 31.1438 12.8964 31.1644 12.985 31.1609C13.1624 31.1521 13.3333 31.0912 13.4763 30.9858C13.8493 30.7207 13.866 30.3125 13.866 29.9042V29.9046ZM22.3035 27.639L21.0057 31.987H19.6134L18.9719 29.0885L18.3222 31.987H16.9132L15.7222 27.639H17.0715L17.6797 30.6796L18.3378 27.639H19.7038L20.3034 30.704L20.9783 27.639H22.3035ZM26.7016 31.987H25.4438V31.5943C25.3522 31.6611 25.2688 31.7193 25.1772 31.7775C24.8631 31.9916 24.4912 32.1049 24.1112 32.1023C23.8506 32.1226 23.5898 32.0654 23.3616 31.9379C23.1334 31.8105 22.948 31.6184 22.8286 31.3859C22.7357 31.1966 22.6873 30.9887 22.6869 30.7778C22.7025 30.5079 22.7944 30.248 22.9519 30.0283C23.1095 29.8085 23.3262 29.6381 23.5768 29.5368C24.1433 29.3473 24.7261 29.2107 25.3177 29.1289V28.8875C25.3276 28.8192 25.322 28.7495 25.3013 28.6837C25.2806 28.6178 25.2454 28.5574 25.1982 28.507C25.151 28.4567 25.0931 28.4175 25.0288 28.3926C24.9644 28.3676 24.8952 28.3574 24.8264 28.3628C24.7039 28.3488 24.58 28.3714 24.4703 28.4278C24.3606 28.4841 24.2701 28.5717 24.2102 28.6795C24.1823 28.7405 24.1628 28.805 24.1519 28.8712H22.8693C22.8702 28.5457 22.9953 28.2329 23.219 27.9965C23.4934 27.7515 23.8367 27.5973 24.202 27.5548C24.387 27.5311 24.5735 27.5199 24.76 27.5215C25.3682 27.5215 26.1928 27.6631 26.4843 28.2879C26.5518 28.4393 26.5832 28.6043 26.5759 28.77V31.3103C26.5412 31.5434 26.5854 31.7815 26.7016 31.9866V31.987ZM25.3188 29.9046L24.4942 30.1794C24.4434 30.1952 24.3939 30.2146 24.3459 30.2376C24.0292 30.3707 23.9461 30.5542 23.9461 30.7196C23.9491 30.7889 23.9662 30.8569 23.9962 30.9195C24.0411 30.9959 24.1058 31.0588 24.1836 31.1013C24.2614 31.1438 24.3493 31.1644 24.4378 31.1609C24.6152 31.1521 24.7861 31.0912 24.9291 30.9858C25.3022 30.7207 25.3188 30.3125 25.3188 29.9042V29.9046ZM31.3577 31.987H27.4843V31.004C27.6927 30.8375 27.9007 30.6792 28.1006 30.522C28.3338 30.3303 28.567 30.1304 28.7917 29.9306C29.4332 29.3807 29.9412 28.8893 29.9412 27.9898C29.9458 27.8464 29.9289 27.7032 29.8912 27.5649C29.8557 27.4555 29.785 27.361 29.69 27.2961C29.595 27.2313 29.4813 27.1998 29.3665 27.2067C29.253 27.2076 29.1415 27.2363 29.0417 27.2901C28.8585 27.3984 28.7502 27.5734 28.7502 27.9979C28.753 28.1428 28.7642 28.2874 28.7836 28.431L27.4424 28.3569C27.3885 27.8301 27.5308 27.302 27.8421 26.8737C28.0391 26.6531 28.2845 26.4812 28.5591 26.3714C28.8337 26.2616 29.1299 26.2169 29.4247 26.2407C29.6498 26.2407 30.6324 26.2489 31.0989 27.032C31.2637 27.3148 31.3472 27.6377 31.3402 27.9649C31.3261 28.584 31.0861 29.1765 30.6654 29.6309C30.2152 30.1287 29.7093 30.5731 29.1577 30.9554L31.3566 30.9221L31.3577 31.987ZM36.3052 31.987H35.0226V31.5791C34.9632 31.6473 34.8991 31.7113 34.8309 31.7708C34.5188 31.9978 34.1415 32.1176 33.7556 32.1123C33.4272 32.1218 33.1041 32.0286 32.8312 31.8457C32.3492 31.4627 32.3896 30.763 32.3896 30.2298V27.6394H33.6807V30.3462C33.6807 30.621 33.6889 30.8283 33.9221 30.971C34.1012 31.0719 34.3129 31.0979 34.5111 31.0433C34.7093 30.9887 34.8778 30.8579 34.98 30.6796C35.0176 30.5725 35.0346 30.4592 35.0301 30.3458V27.639H36.3045L36.3052 31.987Z" fill="url(#paint0_linear)"/>
<path d="M26.6681 18.2062C26.9718 18.2062 27.2631 18.3269 27.4778 18.5416C27.6925 18.7564 27.8131 19.0476 27.8131 19.3513C27.8131 19.6549 27.6925 19.9462 27.4778 20.1609C27.2631 20.3757 26.9718 20.4963 26.6681 20.4963C26.3883 20.4916 26.1186 20.3905 25.9047 20.21V21.3169H28.6527V19.1603C28.6502 18.6903 28.4624 18.2403 28.13 17.908C27.7977 17.5757 27.3476 17.388 26.8776 17.3857H25.9043V18.4925C26.1148 18.306 26.3869 18.204 26.6681 18.2062Z" fill="url(#paint1_linear)"/>
<path d="M16.0956 20.1908C15.8863 20.3791 15.6136 20.4813 15.3322 20.477C15.0285 20.477 14.7372 20.3564 14.5225 20.1417C14.3078 19.9269 14.1871 19.6357 14.1871 19.332C14.1871 19.0283 14.3078 18.7371 14.5225 18.5224C14.7372 18.3076 15.0285 18.187 15.3322 18.187C15.612 18.1917 15.8817 18.2928 16.0956 18.4733V17.3664H15.1223C14.6524 17.3687 14.2023 17.5565 13.87 17.8888C13.5377 18.2211 13.35 18.6711 13.3477 19.141V21.2783H16.0956V20.1908Z" fill="url(#paint2_linear)"/>
<path d="M25.7138 21.6795H13.3477V23.9121H28.6527V21.6795H25.7138Z" fill="url(#paint3_linear)"/>
<path d="M25.9048 24.8095C25.9039 24.8674 25.9146 24.9249 25.9363 24.9786C25.9581 25.0323 25.9904 25.081 26.0313 25.122C26.0723 25.163 26.1211 25.1952 26.1747 25.217C26.2284 25.2387 26.2859 25.2494 26.3439 25.2485H27.6046C27.6625 25.2494 27.72 25.2387 27.7737 25.217C27.8274 25.1952 27.8762 25.163 27.9172 25.122C27.9581 25.081 27.9904 25.0323 28.0121 24.9786C28.0339 24.9249 28.0446 24.8674 28.0436 24.8095V24.294H25.9063L25.9048 24.8095Z" fill="url(#paint4_linear)"/>
<path d="M13.9771 24.8095C13.9762 24.8674 13.9869 24.9249 14.0086 24.9786C14.0303 25.0323 14.0626 25.081 14.1036 25.122C14.1445 25.163 14.1933 25.1952 14.247 25.217C14.3007 25.2387 14.3582 25.2494 14.4161 25.2485H15.6565C15.7144 25.2494 15.7719 25.2387 15.8256 25.217C15.8793 25.1952 15.9281 25.163 15.969 25.122C16.01 25.081 16.0423 25.0323 16.064 24.9786C16.0857 24.9249 16.0964 24.8674 16.0955 24.8095V24.294H13.9771V24.8095Z" fill="url(#paint5_linear)"/>
<path d="M16.0956 20.1908C15.8863 20.3791 15.6136 20.4813 15.3322 20.477C15.0285 20.477 14.7372 20.3564 14.5225 20.1417C14.3078 19.9269 14.1871 19.6357 14.1871 19.332C14.1871 19.0283 14.3078 18.7371 14.5225 18.5224C14.7372 18.3076 15.0285 18.187 15.3322 18.187C15.612 18.1917 15.8817 18.2928 16.0956 18.4733V17.3664H15.1223C14.6524 17.3687 14.2023 17.5565 13.87 17.8888C13.5377 18.2211 13.35 18.6711 13.3477 19.141V21.2783H16.0956V20.1908Z" fill="url(#paint6_linear)"/>
<path d="M13.9771 24.8095C13.9762 24.8674 13.9869 24.9249 14.0086 24.9786C14.0303 25.0323 14.0626 25.081 14.1036 25.122C14.1445 25.163 14.1933 25.1952 14.247 25.217C14.3007 25.2387 14.3582 25.2494 14.4161 25.2485H15.6565C15.7144 25.2494 15.7719 25.2387 15.8256 25.217C15.8793 25.1952 15.9281 25.163 15.969 25.122C16.01 25.081 16.0423 25.0323 16.064 24.9786C16.0857 24.9249 16.0964 24.8674 16.0955 24.8095V24.294H13.9771V24.8095Z" fill="url(#paint7_linear)"/>
<path d="M25.9048 24.8095C25.9039 24.8674 25.9146 24.9249 25.9363 24.9786C25.9581 25.0323 25.9904 25.081 26.0313 25.122C26.0723 25.163 26.1211 25.1952 26.1747 25.217C26.2284 25.2387 26.2859 25.2494 26.3439 25.2485H27.6046C27.6625 25.2494 27.72 25.2387 27.7737 25.217C27.8274 25.1952 27.8762 25.163 27.9172 25.122C27.9581 25.081 27.9904 25.0323 28.0121 24.9786C28.0339 24.9249 28.0446 24.8674 28.0436 24.8095V24.294H25.9063L25.9048 24.8095Z" fill="url(#paint8_linear)"/>
<path d="M26.8776 17.3857H25.9043V18.4925C26.1136 18.3043 26.3863 18.202 26.6678 18.2062C26.9714 18.2062 27.2627 18.3269 27.4774 18.5416C27.6922 18.7564 27.8128 19.0476 27.8128 19.3513C27.8128 19.6549 27.6922 19.9462 27.4774 20.1609C27.2627 20.3757 26.9714 20.4963 26.6678 20.4963C26.3879 20.4916 26.1183 20.3905 25.9043 20.21V21.3169H28.6523V19.1603C28.65 18.6904 28.4622 18.2403 28.1299 17.908C27.7976 17.5757 27.3476 17.388 26.8776 17.3857Z" fill="url(#paint9_linear)"/>
<path d="M16.2866 21.6795H13.3477V23.9121H28.6527V21.6795H16.2866Z" fill="url(#paint10_linear)"/>
<path d="M25.7141 10.649V7.11865H24.9521V9.82844C25.2798 10.023 25.5443 10.3079 25.7141 10.649Z" fill="url(#paint11_linear)"/>
<path d="M17.0499 9.82844V7.11865H16.2864V10.649C16.4566 10.3077 16.7217 10.0228 17.0499 9.82844Z" fill="url(#paint12_linear)"/>
<path d="M21.6108 8.09203H20.4086C20.0064 8.08893 19.6174 8.23573 19.3175 8.50384C19.0175 8.77194 18.8282 9.14213 18.7864 9.54223H23.2519C23.1966 9.14435 23.0007 8.7794 22.6997 8.51341C22.3987 8.24742 22.0124 8.09794 21.6108 8.09203Z" fill="url(#paint13_linear)"/>
<path d="M23.9768 9.94304H18.0229C17.8197 9.94216 17.6183 9.98154 17.4303 10.0589C17.2424 10.1363 17.0716 10.2501 16.9279 10.3938C16.7841 10.5376 16.6703 10.7083 16.5929 10.8963C16.5156 11.0842 16.4762 11.2856 16.4771 11.4889V21.3169H25.5038V11.47C25.5047 11.2692 25.4658 11.0702 25.3894 10.8846C25.3129 10.6989 25.2005 10.5303 25.0585 10.3883C24.9166 10.2463 24.7479 10.1339 24.5622 10.0575C24.3766 9.98104 24.1776 9.94216 23.9768 9.94304ZM18.8435 19.9238H18.462V17.194H18.8435V19.9238ZM21.1906 19.9238H20.8091V17.194H21.1906V19.9238ZM23.5378 19.9238H23.1563V17.194H23.5378V19.9238ZM24.9498 15.63H17.0496V12.3095H24.9313V15.63H24.9498Z" fill="url(#paint14_linear)"/>
<defs>
<linearGradient id="paint0_linear" x1="5.69507" y1="26.0985" x2="36.3052" y2="26.0985" gradientUnits="userSpaceOnUse">
<stop/>
<stop offset="0.5" stop-color="#566193"/>
<stop offset="1" stop-color="#121212"/>
</linearGradient>
<linearGradient id="paint1_linear" x1="25.9043" y1="17.3857" x2="28.6527" y2="17.3857" gradientUnits="userSpaceOnUse">
<stop/>
<stop offset="0.5" stop-color="#566193"/>
<stop offset="1" stop-color="#121212"/>
</linearGradient>
<linearGradient id="paint2_linear" x1="13.3477" y1="17.3664" x2="16.0956" y2="17.3664" gradientUnits="userSpaceOnUse">
<stop/>
<stop offset="0.5" stop-color="#566193"/>
<stop offset="1" stop-color="#121212"/>
</linearGradient>
<linearGradient id="paint3_linear" x1="13.3477" y1="21.6795" x2="28.6527" y2="21.6795" gradientUnits="userSpaceOnUse">
<stop/>
<stop offset="0.5" stop-color="#566193"/>
<stop offset="1" stop-color="#121212"/>
</linearGradient>
<linearGradient id="paint4_linear" x1="25.9048" y1="24.294" x2="28.0437" y2="24.294" gradientUnits="userSpaceOnUse">
<stop/>
<stop offset="0.5" stop-color="#566193"/>
<stop offset="1" stop-color="#121212"/>
</linearGradient>
<linearGradient id="paint5_linear" x1="13.9771" y1="24.294" x2="16.0955" y2="24.294" gradientUnits="userSpaceOnUse">
<stop/>
<stop offset="0.5" stop-color="#566193"/>
<stop offset="1" stop-color="#121212"/>
</linearGradient>
<linearGradient id="paint6_linear" x1="13.3477" y1="17.3664" x2="16.0956" y2="17.3664" gradientUnits="userSpaceOnUse">
<stop/>
<stop offset="0.5" stop-color="#566193"/>
<stop offset="1" stop-color="#121212"/>
</linearGradient>
<linearGradient id="paint7_linear" x1="13.9771" y1="24.294" x2="16.0955" y2="24.294" gradientUnits="userSpaceOnUse">
<stop/>
<stop offset="0.5" stop-color="#566193"/>
<stop offset="1" stop-color="#121212"/>
</linearGradient>
<linearGradient id="paint8_linear" x1="25.9048" y1="24.294" x2="28.0437" y2="24.294" gradientUnits="userSpaceOnUse">
<stop/>
<stop offset="0.5" stop-color="#566193"/>
<stop offset="1" stop-color="#121212"/>
</linearGradient>
<linearGradient id="paint9_linear" x1="25.9043" y1="17.3857" x2="28.6523" y2="17.3857" gradientUnits="userSpaceOnUse">
<stop/>
<stop offset="0.5" stop-color="#566193"/>
<stop offset="1" stop-color="#121212"/>
</linearGradient>
<linearGradient id="paint10_linear" x1="13.3477" y1="21.6795" x2="28.6527" y2="21.6795" gradientUnits="userSpaceOnUse">
<stop/>
<stop offset="0.5" stop-color="#566193"/>
<stop offset="1" stop-color="#121212"/>
</linearGradient>
<linearGradient id="paint11_linear" x1="24.9521" y1="7.11865" x2="25.7141" y2="7.11865" gradientUnits="userSpaceOnUse">
<stop/>
<stop offset="0.5" stop-color="#566193"/>
<stop offset="1" stop-color="#121212"/>
</linearGradient>
<linearGradient id="paint12_linear" x1="16.2864" y1="7.11865" x2="17.0499" y2="7.11865" gradientUnits="userSpaceOnUse">
<stop/>
<stop offset="0.5" stop-color="#566193"/>
<stop offset="1" stop-color="#121212"/>
</linearGradient>
<linearGradient id="paint13_linear" x1="18.7864" y1="8.09198" x2="23.2519" y2="8.09198" gradientUnits="userSpaceOnUse">
<stop/>
<stop offset="0.5" stop-color="#566193"/>
<stop offset="1" stop-color="#121212"/>
</linearGradient>
<linearGradient id="paint14_linear" x1="16.4771" y1="9.94302" x2="25.5038" y2="9.94302" gradientUnits="userSpaceOnUse">
<stop/>
<stop offset="0.5" stop-color="#566193"/>
<stop offset="1" stop-color="#121212"/>
</linearGradient>
</defs>
</svg>
