<svg width="17" height="19" viewBox="0 0 17 19" fill="none" xmlns="http://www.w3.org/2000/svg">
<path d="M14.374 4.94799H12.696C12.696 3.83541 12.254 2.76839 11.4673 1.98168C10.6805 1.19496 9.61353 0.752991 8.50095 0.752991C7.38837 0.752991 6.32135 1.19496 5.53464 1.98168C4.74792 2.76839 4.30595 3.83541 4.30595 4.94799H2.62795C2.18332 4.94931 1.75728 5.12652 1.44288 5.44092C1.12848 5.75532 0.95127 6.18136 0.949951 6.62599V16.693C0.95127 17.1376 1.12848 17.5637 1.44288 17.8781C1.75728 18.1925 2.18332 18.3697 2.62795 18.371H14.374C14.8182 18.3691 15.2438 18.1917 15.5577 17.8774C15.8717 17.563 16.0486 17.1373 16.05 16.693V6.62599C16.0486 6.18171 15.8717 5.75597 15.5577 5.44163C15.2438 5.12728 14.8182 4.94984 14.374 4.94799ZM8.50095 2.43099C8.8316 2.4306 9.15908 2.49543 9.46463 2.62178C9.77019 2.74813 10.0478 2.93352 10.2816 3.16732C10.5154 3.40113 10.7008 3.67876 10.8272 3.98431C10.9535 4.28986 11.0183 4.61734 11.018 4.94799H5.98395C5.98356 4.61734 6.04839 4.28986 6.17474 3.98431C6.30109 3.67876 6.48648 3.40113 6.72028 3.16732C6.95409 2.93352 7.23171 2.74813 7.53727 2.62178C7.84282 2.49543 8.1703 2.4306 8.50095 2.43099ZM14.374 16.693H2.62795V6.62599H14.374V16.693ZM8.50095 9.98099C8.17039 9.98139 7.84299 9.91658 7.5375 9.79029C7.23201 9.66401 6.95443 9.47871 6.72064 9.24501C6.48685 9.01131 6.30144 8.7338 6.17503 8.42836C6.04862 8.12293 5.98369 7.79555 5.98395 7.46499H4.30595C4.30595 8.01589 4.41446 8.56139 4.62528 9.07035C4.8361 9.57931 5.1451 10.0418 5.53464 10.4313C5.92418 10.8208 6.38663 11.1298 6.89559 11.3407C7.40456 11.5515 7.95006 11.66 8.50095 11.66C9.05185 11.66 9.59735 11.5515 10.1063 11.3407C10.6153 11.1298 11.0777 10.8208 11.4673 10.4313C11.8568 10.0418 12.1658 9.57931 12.3766 9.07035C12.5874 8.56139 12.696 8.01589 12.696 7.46499H11.018C11.0183 7.79564 10.9535 8.12312 10.8272 8.42867C10.7008 8.73423 10.5154 9.01186 10.2816 9.24566C10.0478 9.47946 9.77019 9.66485 9.46463 9.7912C9.15908 9.91755 8.8316 9.98239 8.50095 9.98199V9.98099Z" fill="white"/>
</svg>
