<svg width="21" height="15" viewBox="0 0 21 15" fill="none" xmlns="http://www.w3.org/2000/svg">
<path d="M10.7625 7.6925C11.2294 7.28837 11.6039 6.78852 11.8605 6.2269C12.1172 5.66527 12.25 5.055 12.25 4.4375C12.25 3.27718 11.7891 2.16438 10.9686 1.34391C10.1481 0.523436 9.03532 0.0625002 7.875 0.0625002C6.71468 0.0625002 5.60188 0.523436 4.78141 1.34391C3.96094 2.16438 3.5 3.27718 3.5 4.4375C3.49999 5.055 3.63283 5.66527 3.88948 6.2269C4.14614 6.78852 4.52062 7.28837 4.9875 7.6925C3.76262 8.24715 2.72341 9.14284 1.99411 10.2725C1.26481 11.4021 0.876288 12.7179 0.875 14.0625C0.875 14.2946 0.967187 14.5171 1.13128 14.6812C1.29538 14.8453 1.51794 14.9375 1.75 14.9375C1.98206 14.9375 2.20462 14.8453 2.36872 14.6812C2.53281 14.5171 2.625 14.2946 2.625 14.0625C2.625 12.6701 3.17812 11.3348 4.16269 10.3502C5.14726 9.36562 6.48261 8.8125 7.875 8.8125C9.26739 8.8125 10.6027 9.36562 11.5873 10.3502C12.5719 11.3348 13.125 12.6701 13.125 14.0625C13.125 14.2946 13.2172 14.5171 13.3813 14.6812C13.5454 14.8453 13.7679 14.9375 14 14.9375C14.2321 14.9375 14.4546 14.8453 14.6187 14.6812C14.7828 14.5171 14.875 14.2946 14.875 14.0625C14.8737 12.7179 14.4852 11.4021 13.7559 10.2725C13.0266 9.14284 11.9874 8.24715 10.7625 7.6925ZM7.875 7.0625C7.35582 7.0625 6.84831 6.90855 6.41663 6.62011C5.98495 6.33167 5.6485 5.9217 5.44982 5.44204C5.25114 4.96239 5.19915 4.43459 5.30044 3.92539C5.40172 3.41619 5.65173 2.94846 6.01884 2.58135C6.38596 2.21423 6.85369 1.96423 7.36289 1.86294C7.87209 1.76165 8.39989 1.81364 8.87954 2.01232C9.3592 2.211 9.76917 2.54745 10.0576 2.97913C10.346 3.41081 10.5 3.91832 10.5 4.4375C10.5 5.13369 10.2234 5.80137 9.73116 6.29366C9.23887 6.78594 8.57119 7.0625 7.875 7.0625ZM16.3975 7.3425C16.9575 6.71191 17.3233 5.93292 17.4508 5.0993C17.5784 4.26567 17.4623 3.41294 17.1165 2.64375C16.7708 1.87456 16.2101 1.2217 15.5019 0.763745C14.7938 0.305794 13.9683 0.0622746 13.125 0.0625002C12.8929 0.0625002 12.6704 0.154687 12.5063 0.318782C12.3422 0.482876 12.25 0.705436 12.25 0.9375C12.25 1.16956 12.3422 1.39212 12.5063 1.55622C12.6704 1.72031 12.8929 1.8125 13.125 1.8125C13.8212 1.8125 14.4889 2.08906 14.9812 2.58135C15.4734 3.07363 15.75 3.74131 15.75 4.4375C15.7488 4.89709 15.6269 5.34829 15.3966 5.74599C15.1662 6.1437 14.8355 6.47396 14.4375 6.70375C14.3078 6.77858 14.1994 6.88546 14.1228 7.01415C14.0462 7.14284 14.0039 7.28904 14 7.43875C13.9963 7.58729 14.0306 7.73432 14.0995 7.86598C14.1683 7.99763 14.2696 8.10957 14.3938 8.19125L14.735 8.41875L14.8487 8.48C15.9035 8.98025 16.7933 9.77149 17.4134 10.7605C18.0334 11.7496 18.358 12.8952 18.3487 14.0625C18.3487 14.2946 18.4409 14.5171 18.605 14.6812C18.7691 14.8453 18.9917 14.9375 19.2237 14.9375C19.4558 14.9375 19.6784 14.8453 19.8425 14.6812C20.0066 14.5171 20.0987 14.2946 20.0987 14.0625C20.1059 12.7198 19.7696 11.3975 19.1218 10.2213C18.474 9.04514 17.5362 8.05415 16.3975 7.3425Z" fill="white"/>
</svg>
