<svg width="83" height="68" viewBox="0 0 83 68" fill="none" xmlns="http://www.w3.org/2000/svg">
<path d="M13.59 56.464C13.5975 57.5831 13.269 58.6787 12.647 59.609C11.164 61.721 8.918 61.878 6.627 61.878H3.976V67.067H0V51.208H7.862C9.34648 51.0802 10.824 51.5217 11.995 52.443C12.2713 52.669 12.5135 52.9337 12.714 53.229C13.3034 54.204 13.6069 55.3249 13.59 56.464ZM9.659 56.442C9.68429 55.9281 9.53368 55.4209 9.232 55.004C8.603 54.128 7.457 54.128 6.514 54.128H3.976V58.935H6.376C6.82644 58.9563 7.27788 58.9338 7.724 58.868C8.01477 58.8468 8.298 58.7657 8.55589 58.6297C8.81377 58.4937 9.04073 58.3058 9.22247 58.0779C9.40422 57.8499 9.53683 57.5868 9.61195 57.3051C9.68708 57.0234 9.70309 56.7292 9.659 56.441V56.442ZM25.765 67.067H22.373V66.008C22.126 66.188 21.901 66.345 21.654 66.502C20.8069 67.0793 19.8041 67.3849 18.779 67.378C18.0762 67.4326 17.373 67.2784 16.7576 66.9347C16.1422 66.5909 15.642 66.073 15.32 65.446C15.0697 64.9355 14.939 64.3746 14.938 63.806C14.9799 63.0781 15.2278 62.377 15.6527 61.7845C16.0776 61.192 16.662 60.7323 17.338 60.459C18.8656 59.9479 20.4373 59.5797 22.033 59.359V58.708C22.0597 58.5238 22.0445 58.3359 21.9887 58.1583C21.9329 57.9807 21.8379 57.8179 21.7107 57.682C21.5834 57.5461 21.4272 57.4406 21.2537 57.3732C21.0801 57.3059 20.8936 57.2785 20.708 57.293C20.3776 57.2552 20.0434 57.3162 19.7476 57.4682C19.4518 57.6202 19.2077 57.8564 19.046 58.147C18.971 58.3116 18.9182 58.4855 18.889 58.664H15.432C15.4344 57.7863 15.7717 56.9426 16.375 56.305C17.1149 55.6444 18.0407 55.2284 19.026 55.114C19.525 55.0499 20.0279 55.0198 20.531 55.024C22.171 55.024 24.395 55.406 25.181 57.091C25.3632 57.4993 25.4477 57.9444 25.428 58.391V65.242C25.334 65.8706 25.4526 66.5125 25.765 67.066V67.067ZM22.036 61.451L19.812 62.192C19.6751 62.2347 19.5414 62.2872 19.412 62.349C18.558 62.708 18.334 63.203 18.334 63.649C18.3421 63.836 18.388 64.0193 18.469 64.188C18.59 64.3942 18.7647 64.5637 18.9744 64.6783C19.1842 64.793 19.4211 64.8485 19.66 64.839C20.1385 64.8154 20.5994 64.6512 20.985 64.367C21.991 63.652 22.036 62.551 22.036 61.45V61.451ZM44.791 55.341L41.291 67.067H37.536L35.806 59.25L34.054 67.067H30.254L27.042 55.341H30.681L32.321 63.541L34.096 55.341H37.78L39.397 63.607L41.217 55.341H44.791ZM56.652 67.067H53.26V66.008C53.013 66.188 52.788 66.345 52.541 66.502C51.6939 67.0793 50.6911 67.3849 49.666 67.378C48.9632 67.4326 48.26 67.2784 47.6446 66.9347C47.0292 66.5909 46.529 66.073 46.207 65.446C45.9567 64.9355 45.826 64.3746 45.825 63.806C45.8669 63.0781 46.1148 62.377 46.5397 61.7845C46.9646 61.192 47.549 60.7323 48.225 60.459C49.7526 59.9479 51.3243 59.5797 52.92 59.359V58.708C52.9467 58.5238 52.9315 58.3359 52.8757 58.1583C52.82 57.9807 52.7249 57.8179 52.5977 57.682C52.4704 57.5461 52.3142 57.4406 52.1407 57.3732C51.9671 57.3059 51.7806 57.2785 51.595 57.293C51.2646 57.2552 50.9304 57.3162 50.6346 57.4682C50.3388 57.6202 50.0947 57.8564 49.933 58.147C49.858 58.3116 49.8052 58.4855 49.776 58.664H46.317C46.3194 57.7863 46.6567 56.9426 47.26 56.305C47.9999 55.6444 48.9257 55.2284 49.911 55.114C50.41 55.0499 50.9129 55.0198 51.416 55.024C53.056 55.024 55.28 55.406 56.066 57.091C56.2482 57.4993 56.3327 57.9444 56.313 58.391V65.242C56.2196 65.8708 56.3389 66.5128 56.652 67.066V67.067ZM52.923 61.451L50.699 62.192C50.5621 62.2347 50.4284 62.2872 50.299 62.349C49.445 62.708 49.221 63.203 49.221 63.649C49.2291 63.836 49.275 64.0193 49.356 64.188C49.477 64.3942 49.6517 64.5637 49.8614 64.6783C50.0712 64.793 50.3081 64.8485 50.547 64.839C51.0255 64.8154 51.4864 64.6512 51.872 64.367C52.878 63.652 52.923 62.551 52.923 61.45V61.451ZM69.209 67.067H58.763V64.416C59.325 63.967 59.886 63.54 60.425 63.116C61.054 62.599 61.683 62.06 62.289 61.521C64.019 60.038 65.389 58.713 65.389 56.287C65.4013 55.9004 65.3558 55.5142 65.254 55.141C65.1584 54.846 64.9676 54.5911 64.7115 54.4163C64.4554 54.2415 64.1485 54.1566 63.839 54.175C63.533 54.1776 63.2323 54.2548 62.963 54.4C62.469 54.692 62.177 55.164 62.177 56.309C62.1846 56.6997 62.2147 57.0897 62.267 57.477L58.65 57.277C58.5047 55.8564 58.8885 54.4322 59.728 53.277C60.2593 52.6822 60.9211 52.2186 61.6616 51.9224C62.4021 51.6263 63.2011 51.5057 63.996 51.57C64.603 51.57 67.253 51.592 68.511 53.704C68.9555 54.4667 69.1808 55.3374 69.162 56.22C69.1238 57.8896 68.4765 59.4876 67.342 60.713C66.1278 62.0554 64.7636 63.2539 63.276 64.285L69.206 64.195L69.209 67.067ZM82.552 67.067H79.093V65.967C78.9326 66.1508 78.7598 66.3236 78.576 66.484C77.7342 67.0961 76.7168 67.4192 75.676 67.405C74.7904 67.4307 73.9189 67.1793 73.183 66.686C71.883 65.653 71.992 63.766 71.992 62.328V55.342H75.474V62.642C75.474 63.383 75.496 63.942 76.125 64.327C76.608 64.5991 77.179 64.6692 77.7135 64.5219C78.2479 64.3747 78.7025 64.0221 78.978 63.541C79.0793 63.2522 79.1252 62.9468 79.113 62.641V55.341H82.55L82.552 67.067Z" fill="url(#paint0_linear)"/>
<path d="M56.5619 29.9019C57.3809 29.9019 58.1664 30.2274 58.7455 30.8065C59.3247 31.3856 59.65 32.171 59.65 32.99C59.65 33.8089 59.3247 34.5944 58.7455 35.1736C58.1664 35.7527 57.3809 36.078 56.5619 36.078C55.8072 36.0653 55.08 35.7927 54.503 35.306V38.291H61.914V32.4749C61.9074 31.2075 61.4009 29.9938 60.5046 29.0976C59.6082 28.2015 58.3945 27.6952 57.127 27.6889H54.502V30.674C55.0697 30.171 55.8035 29.8959 56.5619 29.9019Z" fill="url(#paint1_linear)"/>
<path d="M28.049 35.254C27.4846 35.7617 26.7491 36.0375 25.99 36.026C25.171 36.026 24.3856 35.7007 23.8065 35.1216C23.2273 34.5425 22.902 33.757 22.902 32.938C22.902 32.119 23.2273 31.3336 23.8065 30.7545C24.3856 30.1754 25.171 29.85 25.99 29.85C26.7447 29.8626 27.472 30.1354 28.049 30.6221V27.637H25.424C24.1566 27.6433 22.9429 28.1496 22.0468 29.0458C21.1506 29.942 20.6443 31.1556 20.638 32.423V38.187H28.049V35.254Z" fill="url(#paint2_linear)"/>
<path d="M53.988 39.269H20.638V45.29H61.914V39.269H53.988Z" fill="url(#paint3_linear)"/>
<path d="M54.503 47.7101C54.5005 47.8663 54.5294 48.0214 54.588 48.1662C54.6466 48.311 54.7336 48.4424 54.8441 48.5529C54.9545 48.6633 55.0861 48.7504 55.2309 48.809C55.3757 48.8676 55.5308 48.8965 55.687 48.894H59.087C59.2432 48.8965 59.3984 48.8676 59.5432 48.809C59.688 48.7504 59.8196 48.6633 59.93 48.5529C60.0405 48.4424 60.1275 48.311 60.1861 48.1662C60.2447 48.0214 60.2737 47.8663 60.2711 47.7101V46.32H54.5071L54.503 47.7101Z" fill="url(#paint4_linear)"/>
<path d="M22.336 47.7101C22.3334 47.8663 22.3623 48.0214 22.4208 48.1662C22.4794 48.311 22.5666 48.4424 22.677 48.5529C22.7875 48.6633 22.919 48.7504 23.0639 48.809C23.2087 48.8676 23.3638 48.8965 23.52 48.894H26.865C27.0212 48.8965 27.1763 48.8676 27.3211 48.809C27.4659 48.7504 27.5974 48.6633 27.7079 48.5529C27.8184 48.4424 27.9055 48.311 27.9641 48.1662C28.0227 48.0214 28.0515 47.8663 28.049 47.7101V46.32H22.336V47.7101Z" fill="url(#paint5_linear)"/>
<path d="M28.049 35.254C27.4846 35.7617 26.7491 36.0375 25.99 36.026C25.171 36.026 24.3856 35.7007 23.8065 35.1216C23.2273 34.5425 22.902 33.757 22.902 32.938C22.902 32.119 23.2273 31.3336 23.8065 30.7545C24.3856 30.1754 25.171 29.85 25.99 29.85C26.7447 29.8626 27.472 30.1354 28.049 30.6221V27.637H25.424C24.1566 27.6433 22.9429 28.1496 22.0468 29.0458C21.1506 29.942 20.6443 31.1556 20.638 32.423V38.187H28.049V35.254Z" fill="url(#paint6_linear)"/>
<path d="M22.336 47.7101C22.3334 47.8663 22.3623 48.0214 22.4208 48.1662C22.4794 48.311 22.5666 48.4424 22.677 48.5529C22.7875 48.6633 22.919 48.7504 23.0639 48.809C23.2087 48.8676 23.3638 48.8965 23.52 48.894H26.865C27.0212 48.8965 27.1763 48.8676 27.3211 48.809C27.4659 48.7504 27.5974 48.6633 27.7079 48.5529C27.8184 48.4424 27.9055 48.311 27.9641 48.1662C28.0227 48.0214 28.0515 47.8663 28.049 47.7101V46.32H22.336V47.7101Z" fill="url(#paint7_linear)"/>
<path d="M54.503 47.7101C54.5005 47.8663 54.5294 48.0214 54.588 48.1662C54.6466 48.311 54.7336 48.4424 54.8441 48.5529C54.9545 48.6633 55.0861 48.7504 55.2309 48.809C55.3757 48.8676 55.5308 48.8965 55.687 48.894H59.087C59.2432 48.8965 59.3984 48.8676 59.5432 48.809C59.688 48.7504 59.8196 48.6633 59.93 48.5529C60.0405 48.4424 60.1275 48.311 60.1861 48.1662C60.2447 48.0214 60.2737 47.8663 60.2711 47.7101V46.32H54.5071L54.503 47.7101Z" fill="url(#paint8_linear)"/>
<path d="M57.127 27.6889H54.502V30.674C55.0664 30.1663 55.8018 29.8905 56.5609 29.9019C57.3799 29.9019 58.1654 30.2274 58.7445 30.8065C59.3237 31.3856 59.649 32.171 59.649 32.99C59.649 33.8089 59.3237 34.5944 58.7445 35.1736C58.1654 35.7527 57.3799 36.078 56.5609 36.078C55.8062 36.0653 55.079 35.7927 54.502 35.306V38.291H61.913V32.4749C61.9067 31.2076 61.4004 29.9939 60.5042 29.0977C59.608 28.2016 58.3944 27.6952 57.127 27.6889Z" fill="url(#paint9_linear)"/>
<path d="M28.564 39.269H20.638V45.29H61.914V39.269H28.564Z" fill="url(#paint10_linear)"/>
<path d="M53.989 9.521V0H51.934V7.30798C52.8175 7.83273 53.531 8.60109 53.989 9.521Z" fill="url(#paint11_linear)"/>
<path d="M30.623 7.30798V0H28.564V9.521C29.023 8.60049 29.7379 7.83204 30.623 7.30798Z" fill="url(#paint12_linear)"/>
<path d="M42.923 2.62501H39.681C38.5961 2.61664 37.547 3.01256 36.7382 3.7356C35.9294 4.45865 35.4188 5.45701 35.306 6.53602H47.3491C47.1999 5.463 46.6716 4.47877 45.8598 3.76142C45.048 3.04407 44.0062 2.64096 42.923 2.62501Z" fill="url(#paint13_linear)"/>
<path d="M49.304 7.61698H33.247C32.6988 7.6146 32.1557 7.72081 31.6488 7.92948C31.1419 8.13815 30.6813 8.44514 30.2937 8.83274C29.9061 9.22035 29.5991 9.68084 29.3905 10.1877C29.1818 10.6946 29.0756 11.2378 29.078 11.786V38.2909H53.422V11.735C53.4244 11.1935 53.3195 10.6569 53.1134 10.1562C52.9073 9.65553 52.604 9.20066 52.2212 8.81779C51.8383 8.43492 51.3834 8.13168 50.8827 7.92558C50.382 7.71947 49.8454 7.6146 49.304 7.61698ZM35.46 34.534H34.431V27.172H35.46V34.534ZM41.79 34.534H40.761V27.172H41.79V34.534ZM48.12 34.534H47.091V27.172H48.12V34.534ZM51.928 22.954H30.622V13.9989H51.878V22.954H51.928Z" fill="url(#paint14_linear)"/>
<defs>
<linearGradient id="paint0_linear" x1="0" y1="51.1864" x2="82.552" y2="51.1864" gradientUnits="userSpaceOnUse">
<stop/>
<stop offset="0.5" stop-color="#566193"/>
<stop offset="1" stop-color="#121212"/>
</linearGradient>
<linearGradient id="paint1_linear" x1="54.502" y1="27.6889" x2="61.914" y2="27.6889" gradientUnits="userSpaceOnUse">
<stop/>
<stop offset="0.5" stop-color="#566193"/>
<stop offset="1" stop-color="#121212"/>
</linearGradient>
<linearGradient id="paint2_linear" x1="20.638" y1="27.637" x2="28.049" y2="27.637" gradientUnits="userSpaceOnUse">
<stop/>
<stop offset="0.5" stop-color="#566193"/>
<stop offset="1" stop-color="#121212"/>
</linearGradient>
<linearGradient id="paint3_linear" x1="20.638" y1="39.269" x2="61.914" y2="39.269" gradientUnits="userSpaceOnUse">
<stop/>
<stop offset="0.5" stop-color="#566193"/>
<stop offset="1" stop-color="#121212"/>
</linearGradient>
<linearGradient id="paint4_linear" x1="54.5029" y1="46.32" x2="60.2712" y2="46.32" gradientUnits="userSpaceOnUse">
<stop/>
<stop offset="0.5" stop-color="#566193"/>
<stop offset="1" stop-color="#121212"/>
</linearGradient>
<linearGradient id="paint5_linear" x1="22.3358" y1="46.32" x2="28.0491" y2="46.32" gradientUnits="userSpaceOnUse">
<stop/>
<stop offset="0.5" stop-color="#566193"/>
<stop offset="1" stop-color="#121212"/>
</linearGradient>
<linearGradient id="paint6_linear" x1="20.638" y1="27.637" x2="28.049" y2="27.637" gradientUnits="userSpaceOnUse">
<stop/>
<stop offset="0.5" stop-color="#566193"/>
<stop offset="1" stop-color="#121212"/>
</linearGradient>
<linearGradient id="paint7_linear" x1="22.3358" y1="46.32" x2="28.0491" y2="46.32" gradientUnits="userSpaceOnUse">
<stop/>
<stop offset="0.5" stop-color="#566193"/>
<stop offset="1" stop-color="#121212"/>
</linearGradient>
<linearGradient id="paint8_linear" x1="54.5029" y1="46.32" x2="60.2712" y2="46.32" gradientUnits="userSpaceOnUse">
<stop/>
<stop offset="0.5" stop-color="#566193"/>
<stop offset="1" stop-color="#121212"/>
</linearGradient>
<linearGradient id="paint9_linear" x1="54.502" y1="27.6889" x2="61.913" y2="27.6889" gradientUnits="userSpaceOnUse">
<stop/>
<stop offset="0.5" stop-color="#566193"/>
<stop offset="1" stop-color="#121212"/>
</linearGradient>
<linearGradient id="paint10_linear" x1="20.638" y1="39.269" x2="61.914" y2="39.269" gradientUnits="userSpaceOnUse">
<stop/>
<stop offset="0.5" stop-color="#566193"/>
<stop offset="1" stop-color="#121212"/>
</linearGradient>
<linearGradient id="paint11_linear" x1="51.934" y1="0" x2="53.989" y2="0" gradientUnits="userSpaceOnUse">
<stop/>
<stop offset="0.5" stop-color="#566193"/>
<stop offset="1" stop-color="#121212"/>
</linearGradient>
<linearGradient id="paint12_linear" x1="28.564" y1="0" x2="30.623" y2="0" gradientUnits="userSpaceOnUse">
<stop/>
<stop offset="0.5" stop-color="#566193"/>
<stop offset="1" stop-color="#121212"/>
</linearGradient>
<linearGradient id="paint13_linear" x1="35.306" y1="2.62488" x2="47.3491" y2="2.62488" gradientUnits="userSpaceOnUse">
<stop/>
<stop offset="0.5" stop-color="#566193"/>
<stop offset="1" stop-color="#121212"/>
</linearGradient>
<linearGradient id="paint14_linear" x1="29.0779" y1="7.61694" x2="53.422" y2="7.61694" gradientUnits="userSpaceOnUse">
<stop/>
<stop offset="0.5" stop-color="#566193"/>
<stop offset="1" stop-color="#121212"/>
</linearGradient>
</defs>
</svg>
