<svg width="22" height="22" viewBox="0 0 22 22" fill="none" xmlns="http://www.w3.org/2000/svg">
<path fill-rule="evenodd" clip-rule="evenodd" d="M4.8125 1.375C4.99484 1.375 5.1697 1.44743 5.29864 1.57636C5.42757 1.7053 5.5 1.88016 5.5 2.0625V19.9375C5.5 20.1198 5.42757 20.2947 5.29864 20.4236C5.1697 20.5526 4.99484 20.625 4.8125 20.625C4.63016 20.625 4.4553 20.5526 4.32636 20.4236C4.19743 20.2947 4.125 20.1198 4.125 19.9375V2.0625C4.125 1.88016 4.19743 1.7053 4.32636 1.57636C4.4553 1.44743 4.63016 1.375 4.8125 1.375Z" fill="white"/>
<path fill-rule="evenodd" clip-rule="evenodd" d="M5.17282 3.51725C6.51069 2.62488 7.35357 2.0625 8.93757 2.0625C9.83544 2.0625 10.5037 2.50938 10.9932 2.83525L11.0372 2.8655C11.5748 3.223 11.9254 3.4375 12.3751 3.4375C12.6061 3.4375 12.8646 3.37975 13.1822 3.26425C13.458 3.15954 13.73 3.04489 13.9976 2.9205C14.0773 2.88338 14.1584 2.84762 14.2451 2.8105C15.0288 2.45987 16.0023 2.0625 17.1876 2.0625C17.3699 2.0625 17.5448 2.13493 17.6737 2.26386C17.8026 2.3928 17.8751 2.56766 17.8751 2.75V11C17.8751 11.1823 17.8026 11.3572 17.6737 11.4861C17.5448 11.6151 17.3699 11.6875 17.1876 11.6875C16.3103 11.6875 15.5651 11.9762 14.8033 12.3159L14.5847 12.4121C14.2822 12.5496 13.9618 12.694 13.6524 12.8068C13.2449 12.9661 12.8125 13.0527 12.3751 13.0625C11.4772 13.0625 10.8089 12.6156 10.3194 12.2897L10.2754 12.2595C9.73782 11.902 9.38719 11.6875 8.93757 11.6875C7.79219 11.6875 7.26282 12.0258 5.88094 12.947C5.80348 12.9935 5.71762 13.0243 5.62826 13.0376C5.53889 13.0509 5.44779 13.0465 5.36013 13.0246C5.27248 13.0027 5.19 12.9637 5.1174 12.91C5.0448 12.8562 4.9835 12.7887 4.937 12.7112C4.89051 12.6337 4.85972 12.5479 4.84641 12.4585C4.8331 12.3691 4.83752 12.278 4.85941 12.1904C4.88131 12.1027 4.92026 12.0202 4.97403 11.9476C5.02781 11.875 5.09535 11.8137 5.17282 11.7672C6.51069 10.8749 7.35357 10.3125 8.93757 10.3125C9.83544 10.3125 10.5037 10.7594 10.9932 11.0853L11.0372 11.1155C11.5748 11.473 11.9254 11.6875 12.3751 11.6875C12.6061 11.6875 12.8646 11.6297 13.1822 11.5142C13.4393 11.4207 13.6992 11.3039 13.9976 11.1705C14.0773 11.1334 14.1584 11.0976 14.2451 11.0605C14.8721 10.78 15.6201 10.4692 16.5001 10.3565V3.49662C15.9047 3.59837 15.3588 3.81837 14.8033 4.06588L14.5847 4.16212C14.2822 4.29962 13.9618 4.444 13.6524 4.55675C13.2449 4.7161 12.8125 4.80266 12.3751 4.8125C11.4772 4.8125 10.8089 4.36562 10.3194 4.03975L10.2754 4.0095C9.73782 3.652 9.38719 3.4375 8.93757 3.4375C7.79219 3.4375 7.26282 3.77575 5.88094 4.697C5.72924 4.79171 5.54659 4.82358 5.37177 4.78584C5.19696 4.74811 5.04373 4.64373 4.9446 4.49486C4.84548 4.346 4.80827 4.16437 4.84086 3.98852C4.87346 3.81267 4.9733 3.65645 5.11919 3.553L5.17419 3.51725H5.17282Z" fill="white"/>
</svg>
