<svg width="20" height="20" viewBox="0 0 20 20" fill="none" xmlns="http://www.w3.org/2000/svg">
<path d="M8.07143 1V3.57143L6.78571 4.21429L4.85714 2.28571L2.28571 4.85714L4.21429 6.78571L3.57143 8.07143H1V11.9286H3.57143L4.21429 13.2143L2.28571 15.1429L4.85714 17.7143L6.78571 15.7857L8.07143 16.4286V19H11.9286V16.4286L13.2143 15.7857L15.1429 17.7143L17.7143 15.1429L15.7857 13.2143L16.4286 11.9286H19V8.07143H16.4286L15.7857 6.78571L17.7143 4.85714L15.1429 2.28571L13.2143 4.21429L11.9286 3.57143V1H8.07143Z" stroke="white" stroke-width="2" stroke-linecap="round" stroke-linejoin="round"/>
<path d="M10.0001 12.5714C11.4203 12.5714 12.5716 11.4202 12.5716 10C12.5716 8.57984 11.4203 7.42857 10.0001 7.42857C8.57998 7.42857 7.42871 8.57984 7.42871 10C7.42871 11.4202 8.57998 12.5714 10.0001 12.5714Z" stroke="white" stroke-width="2" stroke-linecap="round" stroke-linejoin="round"/>
</svg>
