<svg width="18" height="16" viewBox="0 0 18 16" fill="none" xmlns="http://www.w3.org/2000/svg">
<path d="M3.71341 15.0658C3.59377 15.1699 3.44692 15.2376 3.29011 15.2611C3.1333 15.2846 2.97305 15.2629 2.82816 15.1985C2.68326 15.1341 2.55975 15.0297 2.47212 14.8976C2.38448 14.7654 2.33637 14.611 2.33341 14.4525V12.5833C1.89139 12.5833 1.46746 12.4077 1.1549 12.0952C0.842343 11.7826 0.666748 11.3587 0.666748 10.9167V5.08333C0.666748 4.6413 0.842343 4.21738 1.1549 3.90482C1.46746 3.59226 1.89139 3.41666 2.33341 3.41666H11.5001C11.9421 3.41666 12.366 3.59226 12.6786 3.90482C12.9912 4.21738 13.1667 4.6413 13.1667 5.08333V10.9167C13.1667 11.3587 12.9912 11.7826 12.6786 12.0952C12.366 12.4077 11.9421 12.5833 11.5001 12.5833H7.33592L3.71341 15.0658ZM4.41675 12.4883C4.49268 12.4879 4.56725 12.4681 4.63341 12.4308L6.59591 11.0658C6.73558 10.9687 6.90163 10.9166 7.07175 10.9167H10.6667C10.8878 10.9167 11.0997 10.8289 11.256 10.6726C11.4123 10.5163 11.5001 10.3043 11.5001 10.0833V5.91666C11.5001 5.69565 11.4123 5.48369 11.256 5.32741C11.0997 5.17113 10.8878 5.08333 10.6667 5.08333H3.16675C2.94573 5.08333 2.73377 5.17113 2.57749 5.32741C2.42121 5.48369 2.33341 5.69565 2.33341 5.91666V10.0833C2.33341 10.5333 2.69091 10.9017 3.16675 10.9167C3.50841 10.93 3.75591 10.9858 3.87008 11.105C3.97675 11.2167 3.98258 11.405 4.00008 11.7633C4.00258 11.8158 4.00258 11.9108 4.00008 12.0717C4.00008 12.1822 4.04398 12.2881 4.12212 12.3663C4.20026 12.4444 4.30624 12.4883 4.41675 12.4883ZM14.0001 8.42999C13.9974 8.53275 13.9974 8.63557 14.0001 8.73833V8.42999C14.0167 8.07166 14.0234 7.88333 14.1301 7.77166C14.2442 7.65249 14.4917 7.59666 14.8334 7.58333C15.3092 7.56833 15.6667 7.19999 15.6667 6.74999V2.58333C15.6667 2.36231 15.579 2.15035 15.4227 1.99407C15.2664 1.83779 15.0544 1.74999 14.8334 1.74999H7.33342C7.1124 1.74999 6.90044 1.83779 6.74416 1.99407C6.58788 2.15035 6.50008 2.36231 6.50008 2.58333H4.83342V1.74999C4.83342 1.30797 5.00901 0.884044 5.32157 0.571484C5.63413 0.258923 6.05805 0.0833282 6.50008 0.0833282H15.6667C16.1088 0.0833282 16.5327 0.258923 16.8453 0.571484C17.1578 0.884044 17.3334 1.30797 17.3334 1.74999V7.58333C17.3334 8.02536 17.1578 8.44928 16.8453 8.76184C16.5327 9.0744 16.1088 9.24999 15.6667 9.24999V11.1192C15.6638 11.2777 15.6157 11.4321 15.528 11.5642C15.4404 11.6964 15.3169 11.8008 15.172 11.8652C15.0271 11.9296 14.8669 11.9513 14.7101 11.9278C14.5532 11.9043 14.4064 11.8365 14.2867 11.7325L14.0001 11.5358V8.43083V8.42999Z" fill="white"/>
</svg>
