<svg width="21" height="21" viewBox="0 0 21 21" fill="none" xmlns="http://www.w3.org/2000/svg">
<path d="M17.7188 2.625H0.65625V15.75H17.7188V2.625ZM16.4062 14.4375H1.96875V3.9375H16.4062V14.4375Z" fill="white"/>
<path d="M19.0312 5.90625V17.0625H3.9375V18.375H20.3438V5.90625H19.0312Z" fill="white"/>
<path d="M9.1875 12.4056C10.8158 12.4056 12.1406 10.9644 12.1406 9.19302C12.1406 7.42159 10.8158 5.98042 9.1875 5.98042C7.55918 5.98042 6.23438 7.42155 6.23438 9.19302C6.23438 10.9645 7.55918 12.4056 9.1875 12.4056ZM9.1875 7.29292C10.0921 7.29292 10.8281 8.14531 10.8281 9.19302C10.8281 10.2407 10.0921 11.0931 9.1875 11.0931C8.28286 11.0931 7.54688 10.2407 7.54688 9.19302C7.54688 8.14531 8.28286 7.29292 9.1875 7.29292Z" fill="white"/>
<path d="M3.28125 5.57812H4.59375V12.7969H3.28125V5.57812Z" fill="white"/>
<path d="M13.7812 5.57812H15.0938V12.7969H13.7812V5.57812Z" fill="white"/>
</svg>
